<svg viewBox="0 0 562 196" fill="none" xmlns="http://www.w3.org/2000/svg">
<g clip-path="url(#clip0_9_27)">
<path d="M0.991089 5.46585L2.00333 189.862L127.436 189.145C140.633 187.807 155.482 184.655 165.859 176.576C171.557 172.14 177.238 166.269 180.958 158.735V189.482L272.988 188.807C347.401 183.818 372.603 132.464 372.229 98.8025C371.839 63.7093 348.567 9.78017 264.805 5.80326L180.958 5.46585V117.613C176.003 106.664 165.351 96.0083 142.451 89.6502C159.82 79.7415 167.644 64.2853 165.817 48.0642C164.079 32.6323 157.511 11.631 117.23 6.14068L0.991089 5.46585ZM93.3577 29.8017C116.456 33.959 121.053 47.0372 121.11 56.9212C121.172 67.6644 115.101 81.7235 93.3577 82.8176L43.9268 82.6489V30.1391L93.3577 29.8017ZM225.581 29.9704L252.532 30.35C305.752 29.6991 322.95 67.4058 322.756 97.8325C322.595 123.105 312.433 165.128 252.532 164.978L224.906 164.64L225.581 29.9704ZM107.824 107.027C131.358 109.422 140.159 123.128 140.722 135.665C141.218 146.712 136.042 163.023 108.499 165.146H44.0955V107.702L107.824 107.027Z" fill="currentColor"/>
<path d="M452.744 0.0672607C392.589 0.0672607 343.844 43.9489 343.844 98.0433C343.844 152.138 392.589 195.977 452.744 195.977C512.899 195.977 561.686 152.138 561.686 98.0433C561.686 43.9489 512.899 0.0672607 452.744 0.0672607ZM453.334 22.1678C488.044 22.1678 516.177 55.8411 516.177 97.3685C516.177 138.896 488.044 172.569 453.334 172.569C418.625 172.569 390.491 138.896 390.491 97.3685C390.491 55.8411 418.625 22.1678 453.334 22.1678Z" fill="currentColor"/>
</g>
<defs>
<clipPath id="clip0_9_27">
<rect width="560.695" height="195.91" fill="white" transform="translate(0.991089 0.0672607)"/>
</clipPath>
</defs>
</svg>
