<svg viewBox="0 0 233 196" fill="none" xmlns="http://www.w3.org/2000/svg">
<path fill-rule="evenodd" clip-rule="evenodd" d="M93.0113 0.249528C75.7279 1.51128 60.7383 6.21517 47.235 14.615C-11.4857 51.1422 -15.4888 133.977 39.422 176.278C62.0289 193.694 90.4111 199.774 120.568 193.661C133.01 191.139 151.566 182.14 159.307 174.873C166.065 168.53 162.509 157.241 153.235 155.598C149.818 154.992 147.362 155.784 143.146 158.85C126.046 171.288 104.972 176.039 84.3338 172.108C43.5949 164.348 16.7555 124.767 24.5584 83.9569C30.2565 54.1563 53.2701 30.6723 82.9306 24.3912C89.7047 22.9568 102.034 22.4146 108.021 23.288C121.801 25.2979 135.272 30.8418 144.386 38.2536C155.391 47.2031 169.634 30.9762 159.23 21.343C144.872 8.0508 115.279 -1.37597 93.0113 0.249528ZM205.232 31.6104C197.847 33.7206 195.089 41.1002 198.805 48.8037C203.202 57.9174 206.532 67.844 208.158 76.6866C208.371 77.8475 208.642 79.2938 208.76 79.9005C210.071 86.6352 210.538 103.266 209.613 110.224C208.893 115.632 208.164 120.017 207.585 122.419C207.461 122.935 207.131 124.307 206.852 125.468C205.24 132.183 202.358 140.077 198.933 147.162C195.938 153.359 196.36 157.782 200.33 161.768C205.961 167.421 214.747 165.831 218.554 158.469C237.303 122.212 237.528 75.9569 219.134 39.0003C216.005 32.7124 210.89 29.9938 205.232 31.6104ZM93.9494 36.2338C54.9448 39.3352 28.8749 75.8087 38.5843 113.693C47.0169 146.594 80.9658 166.622 114.037 158.205C137.566 152.216 155.619 132.612 159.732 108.582C161.805 96.4733 160.341 90.9157 154.303 87.9722C151.695 86.7011 150.999 86.6556 134.522 86.6769C112.135 86.7062 107.212 86.8734 105.48 87.6631C96.6274 91.7007 96.2313 104.001 104.816 108.296C107.453 109.615 108.227 109.671 122.864 109.592C132.947 109.537 136.047 109.586 136.047 109.8C136.047 110.524 133.617 115.94 132.302 118.148C121.85 135.695 99.464 142.334 81.285 133.277C58.289 121.821 52.2567 92.1632 68.9238 72.5031C78.9704 60.652 96.8652 55.7197 111.07 60.8865C113.666 61.831 116.636 63.1926 118.497 64.2923C124.294 67.718 129.336 67.3569 133.493 63.2177C139.159 57.5752 137.859 49.3204 130.618 44.9556C119.778 38.4217 106.413 35.2427 93.9494 36.2338ZM173.844 51.2386C166.573 53.8545 164.359 60.1499 167.82 68.37C175.995 87.7862 175.941 108.762 167.666 128.223C164.559 135.531 166.449 141.848 172.573 144.625C178.981 147.53 185.245 144.637 188.407 137.312C196.553 118.437 198.508 99.1556 194.446 77.7419C192.887 69.5232 188.294 57.2167 185.744 54.4267C182.762 51.164 177.769 49.8265 173.844 51.2386Z" fill="currentColor"/>
</svg>
