<svg viewBox="0 0 702 197" fill="none" xmlns="http://www.w3.org/2000/svg">
<path fill-rule="evenodd" clip-rule="evenodd" d="M279.846 5.03062C288.749 14.862 289.078 18.5546 284.322 55.3836C282.476 69.6722 278.336 101.903 275.121 127.007C268.505 178.652 268.103 180.236 259.633 188.044C257.553 189.961 255.852 191.71 255.852 191.931C255.852 192.152 270.247 192.332 287.841 192.332H319.83L316.106 189.955C304.651 182.638 303.909 180.504 306.022 160.926C306.917 152.635 309.452 128.234 311.655 106.704C313.858 85.1726 315.919 67.8364 316.234 68.1789C316.55 68.5206 325.547 90.0946 336.227 116.12C359.065 171.772 360.269 173.881 374.777 183.663C383.511 189.554 401.552 197.661 402.908 196.305C403.082 196.13 410.546 174.344 419.494 147.889C448.188 63.0551 446.802 67.0056 446.802 70.0575C446.802 70.6713 449.251 93.1674 452.245 120.048C459.361 183.94 459.291 185.142 448.058 191.355C446.817 192.042 457.219 192.276 488.258 192.263C527.795 192.245 530.015 192.166 528.039 190.833C521.027 186.108 520.683 185.023 517.219 156.739C515.809 145.223 513.889 129.96 512.952 122.82C502.548 43.4836 499.564 19.9356 499.564 17.1534C499.564 11.6268 503.573 5.73245 510.113 1.64126C511.361 0.859875 503.411 0.632912 473.504 0.594387L435.302 0.544983L431.88 10.3856C429.998 15.7975 421.407 41.0808 412.788 66.571C401.647 99.5207 396.904 112.532 396.376 111.591C395.969 110.862 387.728 91.5142 378.062 68.596C368.397 45.6778 357.965 20.9909 354.879 13.7356L349.27 0.544983H312.527H275.783L279.846 5.03062ZM558.521 5.81118C566.718 13.8487 566.145 7.04063 566.145 96.4387V174.326L563.784 179.135C561.289 184.218 557.774 188.239 553.596 190.786C551.131 192.289 552.752 192.327 621.151 192.329L691.232 192.332L692.472 187.936C699.241 163.924 702.091 153.38 701.871 153.161C701.728 153.018 699.368 154.214 696.626 155.821C680.239 165.425 650.394 167.976 629.567 161.552L625.153 160.19L625.38 88.9523C625.64 7.54649 624.925 14.8821 633.532 5.36061L637.885 0.544983H595.517H553.15L558.521 5.81118ZM48.9891 10.1193C48.9891 10.4953 71.1552 32.2393 80.9908 41.5113L86.6104 46.8093L104.022 29.0217C113.598 19.238 121.558 10.9015 121.712 10.4953C121.87 10.0766 106.189 9.75748 85.4899 9.75748C65.415 9.75748 48.9891 9.9208 48.9891 10.1193ZM146.139 10.0121C146.139 10.6067 182.264 46.1887 182.868 46.1887C183.726 46.1887 219.837 11.2172 219.838 10.3856C219.838 10.0397 203.257 9.75748 182.989 9.75748C162.722 9.75748 146.139 9.87221 146.139 10.0121ZM18.0016 32.7887L0.00961304 50.795L36.8529 50.7556L73.6954 50.7171L55.2704 32.7661C45.1366 22.8937 36.6536 14.8084 36.4191 14.7992C36.1846 14.79 27.8967 22.8853 18.0016 32.7887ZM115.989 32.7887L97.9971 50.795H133.793C153.481 50.795 169.589 50.5085 169.589 50.1593C169.589 49.4684 135.087 14.7825 134.4 14.7825C134.17 14.7825 125.884 22.8853 115.989 32.7887ZM213.744 32.2033C204.199 41.7851 196.389 49.888 196.389 50.2096C196.389 50.5312 212.498 50.795 232.185 50.795H267.981L249.989 32.7887C240.094 22.8853 231.795 14.7825 231.548 14.7825C231.3 14.7825 223.289 22.6215 213.744 32.2033ZM13.4004 74.4543C20.6624 81.4784 27.024 87.3074 27.5374 87.4063C28.0508 87.5051 34.5004 81.7624 41.8704 74.6453L55.2704 61.7051L27.7334 61.6934L0.196375 61.6825L13.4004 74.4543ZM86.6766 79.4341V97.1858L89.0333 93.4622C99.1009 77.5573 108.452 62.458 108.452 62.1062C108.452 61.8734 103.552 61.6825 97.5641 61.6825H86.6766V79.4341ZM136.648 62.2411C135.783 63.1054 135.989 77.595 136.866 77.595C137.293 77.595 140.772 76.4878 144.596 75.1344C148.419 73.7818 151.622 72.7492 151.713 72.8405C151.805 72.9318 156.072 85.8041 161.196 101.445C166.319 117.087 170.711 130.084 170.956 130.328C171.2 130.572 176.395 125.508 182.502 119.076L193.605 107.38L201.28 113.501L208.956 119.622L238.266 90.933C254.387 75.1545 267.577 62.1188 267.577 61.9639C267.577 61.4153 137.197 61.6917 136.648 62.2411ZM54.865 93.0066C49.1147 98.3047 44.2907 102.995 44.1458 103.431C44.0001 103.867 48.7052 108.639 54.6012 114.035L65.3204 123.846L65.5557 113.702C65.6847 108.123 65.6847 99.0165 65.5557 93.4664L65.3204 83.3754L54.865 93.0066ZM109.638 106.104C107.297 110.001 101.155 120.121 95.9904 128.592L86.6004 143.996L99.9937 157.461C107.359 164.867 113.599 170.714 113.859 170.454C114.12 170.194 114.235 154.014 114.114 134.501L113.895 99.0199L109.638 106.104ZM134.466 146.214L134.412 191.61L136.716 189.9C137.984 188.959 142.954 184.479 147.761 179.946L156.502 171.701L146.149 137.001C140.454 117.916 135.509 101.967 135.158 101.559C134.808 101.15 134.496 121.245 134.466 146.214Z" fill="currentColor"/>
</svg>
