<svg viewBox="0 0 227 197" fill="none" xmlns="http://www.w3.org/2000/svg">
<path fill-rule="evenodd" clip-rule="evenodd" d="M121.784 0.924435C71.4165 7.32054 55.4004 64.4761 93.3855 102.266C114.86 123.63 148.605 133.935 199.021 134.523C228.743 134.87 227.921 135.296 224.378 121.407C204.863 44.9193 162.949 -4.30296 121.784 0.924435ZM59.1653 25.9233C6.10225 33.7966 -16.3143 87.84 14.453 133.717C42.3522 175.318 100.072 195.659 192.273 196.384L201.346 196.455L202.558 195.102C204.636 192.784 202.304 182.537 193.759 156.427C190.089 145.215 191.225 146.146 180.02 145.157C121.471 139.984 86.1574 121.292 68.9042 86.3417C59.3557 66.9992 58.5619 48.6333 66.494 30.5668C68.8064 25.2996 67.7748 24.6461 59.1653 25.9233Z" fill="currentColor"/>
</svg>
