<svg viewBox="0 0 385 197" fill="none" xmlns="http://www.w3.org/2000/svg">
<path fill-rule="evenodd" clip-rule="evenodd" d="M0.500854 98.5005V196.435H28.5617H56.6226V156.666V116.898H61.3867C74.9533 116.898 78.3775 120.227 91.3988 146.074C95.518 154.251 102.905 168.885 107.814 178.595L116.74 196.249L148.353 196.344L179.966 196.439L178.272 192.999C172.79 181.863 167.491 170.933 166.243 168.188C165.454 166.451 163.086 161.6 160.981 157.41C158.877 153.219 155.986 147.282 154.558 144.216C146.673 127.284 136.273 116.07 124.731 112.054C119.823 110.347 120.038 109.778 126.124 108.364C167.859 98.6688 180.086 36.7208 145.323 11.091C132.366 1.53801 123.735 0.583566 50.2114 0.573159L0.500854 0.566097V98.5005ZM185.22 98.4819V196.435L227.683 196.434C276.661 196.434 278 196.364 291.831 193.07C324.089 185.387 343.767 160.583 348.163 122.065C354.985 62.2889 336.157 17.3696 299.136 5.09784C286.456 0.894651 285.543 0.834813 231.771 0.670908L185.22 0.528931V98.4819ZM343.178 0.777947C343.178 1.03142 346.239 8.84759 346.442 9.11333C346.519 9.2148 347.183 8.62942 347.918 7.8125C348.652 6.9952 350.471 5.03094 351.96 3.44652L354.667 0.566097H348.922C345.763 0.566097 343.178 0.661615 343.178 0.777947ZM365.486 4.66299C367.58 6.91641 369.412 8.83347 369.558 8.92304C369.768 9.05312 370.985 6.37972 373.221 0.871236C373.29 0.703242 370.72 0.566097 367.512 0.566097H361.679L365.486 4.66299ZM336.298 5.48474C334.256 7.95671 332.365 10.2027 332.095 10.4759C331.685 10.8903 332.649 10.9728 337.908 10.9728H344.212L342.163 6.04819C341.036 3.33985 340.091 1.09386 340.062 1.05707C340.034 1.02065 338.34 3.01316 336.298 5.48474ZM375.931 1.74205C375.748 2.21965 374.827 4.41583 373.884 6.62242C372.94 8.82901 372.168 10.7104 372.168 10.8037C372.168 10.8966 374.948 10.9728 378.345 10.9728H384.523L383.094 9.20737C376.43 0.976789 376.282 0.82292 375.931 1.74205ZM357.611 1.664C357.543 1.85913 355.593 4.03338 353.279 6.49568L349.07 10.9728H358.23H367.391L362.82 6.14111C358.292 1.3544 357.852 0.976417 357.611 1.664ZM339.336 20.3574C343.017 24.0878 347.758 28.8965 349.872 31.0428C351.986 33.1892 353.618 34.6945 353.499 34.3878C353.379 34.0812 352.674 32.2415 351.93 30.2995C349.419 23.7433 345.651 14.5066 345.297 14.039C345.041 13.7001 343.28 13.5745 338.795 13.5745H332.645L339.336 20.3574ZM348.505 14.039C348.995 15.1648 354.424 28.7225 356.236 33.3461L358.231 38.4368L360.039 33.7177C361.033 31.1224 363.225 25.528 364.908 21.2866L367.97 13.5745H358.136C350.409 13.5745 348.346 13.6741 348.505 14.039ZM370.943 14.039C369.444 17.7093 362.77 34.347 362.631 34.7595C362.527 35.0661 362.805 34.8989 363.248 34.3878C363.69 33.8768 368.496 28.9849 373.927 23.5166L383.801 13.5745H377.467C372.748 13.5745 371.085 13.693 370.943 14.039ZM89.8869 39.9803C103.019 41.4833 109.028 47.6924 109.028 59.7601C109.028 70.534 104.024 76.0079 91.5594 78.8709L85.4269 80.2795L71.1177 80.2843L56.8085 80.2888L56.7118 60.4046C56.6587 49.4682 56.6955 40.3115 56.7932 40.0558C57.0196 39.4644 84.8274 39.4009 89.8869 39.9803ZM267.517 45.8393C286.787 50.9151 293.653 63.6199 294.368 95.5271C295.229 134 287.366 149.229 265.314 151.798C262.837 152.086 244.826 152.387 239.948 152.222C239.424 152.205 239.238 45.1651 239.762 44.6373C240.69 43.7011 263.082 44.6708 267.517 45.8393Z" fill="currentColor"/>
</svg>
