<svg width="398" height="398" viewBox="0 0 398 398" fill="currentColor" xmlns="http://www.w3.org/2000/svg">
<path fill-rule="evenodd" clip-rule="evenodd" d="M274.121 59.6158C272.616 59.8133 271.127 60.0639 269.657 60.3657L257.361 8.67942C239.873 3.32281 221.36 0.310666 202.189 0.00951482L253.025 66.3259C251.678 67.0364 250.361 67.7942 249.074 68.5972L196.489 0C191.622 0.0601762 186.797 0.295082 182.02 0.698734L248.252 69.1189C246.966 69.9497 245.711 70.8261 244.491 71.7458L176.238 1.27211C170.516 1.92358 164.869 2.81764 159.306 3.94376L243.515 72.4965C242.306 73.4459 241.131 74.4387 239.995 75.4723L153.61 5.1843C147.87 6.52342 142.225 8.11098 136.688 9.93501L239.292 76.122C238.166 77.178 237.078 78.2749 236.032 79.4104L131.21 11.8291C124.721 14.1801 118.389 16.8589 112.234 19.8457L235.133 80.4064C234.11 81.5651 233.129 82.7617 232.192 83.9938L107.176 22.3901C79.6274 36.7437 55.8587 57.3543 37.7542 82.3375L223.453 99.7244C222.905 101.166 222.408 102.633 221.964 104.123L34.753 86.5948C29.6422 94.0494 25.0257 101.87 20.9508 110.008L221.518 105.699C221.115 107.196 220.765 108.715 220.472 110.254L18.7069 114.639C14.9078 122.745 11.6394 131.15 8.94638 139.809L220.199 111.789C219.946 113.322 219.748 114.873 219.607 116.44L7.51548 144.625C4.78433 154.264 2.76143 164.201 1.50657 174.376L219.447 118.659C219.385 119.813 219.353 120.976 219.353 122.146C219.353 122.551 219.357 122.955 219.364 123.359L0.966221 179.25C0.327138 185.742 0 192.325 0 198.984C0 202.532 0.0928248 206.058 0.276178 209.56L219.447 125.632C219.533 127.206 219.677 128.764 219.876 130.306L0.579208 214.282C2.47843 239.265 8.99086 262.96 19.2666 284.514L222.613 142.217C223.109 143.697 223.658 145.152 224.259 146.58L21.2816 288.619C26.2319 298.414 31.9683 307.745 38.4078 316.528L225.944 150.253C226.638 151.645 227.382 153.007 228.173 154.339L41.1781 320.217C47.5676 328.522 54.5981 336.309 62.1955 343.503L230.259 157.613C231.129 158.89 232.044 160.134 233.003 161.342L65.5712 346.627C73.9725 354.224 83.0253 361.115 92.6357 367.204L236.054 164.905C237.095 166.034 238.177 167.124 239.297 168.175L96.5554 369.625C105.915 375.256 115.776 380.139 126.055 384.19L242.779 171.208C243.961 172.164 245.178 173.079 246.428 173.949L130.316 385.814C151.725 393.686 174.86 397.984 199 397.984C202.747 397.984 206.471 397.881 210.167 397.676L261.549 181.684C262.968 182.181 264.41 182.629 265.873 183.026L214.885 397.36C225.445 396.526 235.774 394.867 245.806 392.449L270.671 184.125C272.15 184.403 273.646 184.63 275.159 184.803L250.571 391.237C260.023 388.708 269.197 385.501 278.039 381.67L279.709 185.158C280.6 185.195 281.496 185.214 282.396 185.214C283.015 185.214 283.632 185.205 284.247 185.187L282.642 379.606C291.935 375.295 300.84 370.288 309.289 364.652L289.457 184.823C290.971 184.654 292.469 184.431 293.949 184.157L313.573 361.713C321.333 356.24 328.683 350.226 335.569 343.726L298.769 183.066C300.234 182.673 301.677 182.229 303.098 181.735L339.361 340.051C355.721 323.772 369.265 304.667 379.2 283.529L318.927 173.552C320.17 172.667 321.379 171.738 322.552 170.767L381.53 278.382C384.522 271.512 387.138 264.441 389.352 257.194L325.962 167.732C327.073 166.669 328.146 165.566 329.177 164.424L390.973 251.59C392.819 244.839 394.318 237.944 395.45 230.927L332.152 160.88C333.102 159.661 334.007 158.407 334.867 157.118L396.305 225.074C397.045 219.427 397.547 213.706 397.803 207.921L336.887 153.884C337.669 152.544 338.402 151.172 339.086 149.771L397.978 201.987C397.993 200.988 398 199.987 398 198.984C398 194.606 397.859 190.261 397.58 185.954L340.71 146.157C341.301 144.722 341.84 143.26 342.326 141.774L397.117 180.115C396.127 169.586 394.316 159.296 391.75 149.309L344.777 131.322C345 129.79 345.168 128.241 345.279 126.676L390.28 143.908C389.401 140.849 388.45 137.819 387.43 134.822L345.411 124.069C345.43 123.43 345.439 122.789 345.439 122.146C345.439 121.22 345.419 120.298 345.38 119.382L385.593 129.663C384.604 127.003 383.561 124.37 382.463 121.765L345.217 116.815C345.086 115.249 344.898 113.699 344.655 112.168L380.336 116.9C379.442 114.929 378.517 112.974 377.561 111.037L344.332 110.315C344.04 108.776 343.692 107.257 343.291 105.759L375.22 106.445C374.274 104.648 373.302 102.867 372.303 101.102L342.752 103.869C342.301 102.379 341.798 100.913 341.243 99.472L369.795 96.7987C364.929 88.6829 359.501 80.9427 353.565 73.6319L332.583 83.971C331.645 82.7391 330.663 81.5429 329.64 80.3846L350.594 70.0589C349.72 69.0315 348.835 68.0132 347.94 67.0039L328.737 79.3846C327.69 78.2496 326.601 77.1532 325.475 76.0977L344.85 63.5992C344.057 62.7452 343.256 61.8982 342.448 61.0583L324.767 75.445C323.63 74.4119 322.455 73.4199 321.245 72.4711L339.253 57.8107C338.316 56.8792 337.369 55.957 336.413 55.0442L320.264 71.7181C319.043 70.7992 317.788 69.9236 316.501 69.0936L333.097 51.9489C332.18 51.1119 331.255 50.2834 330.322 49.4634L315.675 68.5704C314.388 67.7683 313.069 67.0115 311.722 66.302L326.89 46.5151C319.222 40.0763 311.061 34.2053 302.472 28.9668L295.273 60.3941C293.805 60.0892 292.318 59.8354 290.814 59.6347L298.393 26.5453C296.915 25.6915 295.425 24.8563 293.923 24.0398L290.001 59.5315C288.511 59.3524 287.006 59.2252 285.487 59.1518L289.61 21.7626C287.828 20.8494 286.029 19.9623 284.216 19.1018L284.546 59.1134C283.833 59.0894 283.116 59.0774 282.396 59.0774C281.6 59.0774 280.807 59.0922 280.018 59.1214L279.66 17.0099C277.836 16.2004 275.998 15.4175 274.147 14.6617L279.445 59.1453C277.925 59.2153 276.419 59.3392 274.929 59.5152L269.35 12.7769C267.049 11.9072 264.728 11.0789 262.388 10.2929L274.121 59.6158ZM329 121.984C329 146.837 308.853 166.984 284 166.984C259.147 166.984 239 146.837 239 121.984C239 97.1317 259.147 76.9845 284 76.9845C308.853 76.9845 329 97.1317 329 121.984Z" fill="currentColor"/>
</svg>
