<svg viewBox="0 0 242 196" fill="none" xmlns="http://www.w3.org/2000/svg">
<path fill-rule="evenodd" clip-rule="evenodd" d="M41.8062 2.72639C45.2111 0.901527 49.0838 0.0581631 52.9299 0C84.6453 0.00276967 116.361 0.002374 148.076 0.00197835C171.862 0.0016816 195.648 0.00138486 219.434 0.00242352C222.732 0.0411989 226.081 0.407142 229.162 1.66492C232.615 2.9857 235.618 5.43825 237.607 8.55724C239.847 12.0785 240.957 16.259 241.102 20.408L241.103 42.1764V42.3641C241.105 86.0199 241.108 129.674 241.099 173.331C241.116 178.149 239.994 183.151 237.023 187.038C234.144 190.852 229.651 193.184 225.022 194.093C222.642 194.645 220.207 194.624 217.777 194.602H217.777C217.039 194.596 216.303 194.589 215.568 194.599C203.753 194.604 191.937 194.602 180.121 194.599C161.463 194.596 142.805 194.592 124.148 194.616C131.629 191.88 138.912 188.56 145.719 184.408C152.386 180.441 158.612 175.783 164.588 170.847C169.108 167.07 173.577 163.227 178.044 159.386L178.332 159.139C186.702 151.9 194.285 143.704 200.56 134.575C202.412 131.958 203.911 129.128 205.409 126.298C206.121 124.955 206.832 123.613 207.581 122.293C208.7 120.359 209.505 118.262 210.227 116.154C210.289 115.956 210.354 115.758 210.419 115.559L210.42 115.558C210.844 114.258 211.278 112.932 211.112 111.547C210.991 111.65 210.871 111.752 210.75 111.854L210.587 111.993C209.385 113.013 208.182 114.034 207.069 115.153C205.281 116.777 203.502 118.412 201.724 120.047L201.723 120.048C198.236 123.254 194.748 126.46 191.186 129.582C179.207 140.241 166.816 150.47 153.68 159.682C146.034 164.989 138.127 169.967 129.751 174.051C129.334 174.242 128.917 174.436 128.501 174.63C126.432 175.594 124.358 176.56 122.166 177.213C127.524 170.915 131.983 163.831 135.124 156.173C139.157 146.45 141.088 135.876 140.86 125.356C140.519 110.944 136.062 96.5992 127.921 84.6781C128.663 84.0244 129.396 83.3593 130.129 82.694C131.977 81.0166 133.825 79.3384 135.824 77.8391C142.518 72.6917 149.604 68.0823 156.763 63.6134C158.843 62.2899 160.935 60.9841 163.028 59.6781C169.5 55.6391 175.975 51.5982 182.086 47.0273C184.882 44.9261 187.573 42.6844 190.083 40.2488C193.304 36.9481 196.312 33.2499 197.812 28.8271L197.843 28.7263C198.31 27.2051 198.788 25.6532 198.757 24.0456C198.756 23.7632 198.758 23.4807 198.76 23.1982C198.767 22.2659 198.774 21.3336 198.687 20.4055C198.037 16.3947 196.35 12.5802 193.973 9.29882C191.811 6.31554 188.699 3.99629 185.147 2.96632C180.305 1.47104 175.116 2.13507 170.296 3.36861C162.911 5.35585 156.063 8.90622 149.531 12.8104C141.035 17.9942 133.066 23.9995 125.42 30.3587C115.31 38.8626 105.672 47.9482 96.7315 57.6784C88.957 53.8081 80.4652 51.4234 71.8571 50.3619C58.4069 48.6994 44.5544 50.5582 32.0009 55.6645V21.6294C31.95 17.8124 32.5801 13.9204 34.2765 10.4718C35.8711 7.17102 38.5805 4.44705 41.8062 2.72639ZM50.7366 70.2174C61.6373 67.9223 73.1463 68.4991 83.7344 71.9865C84.0131 72.0568 84.2991 72.1028 84.5875 72.127C82.6655 74.2325 81.0625 76.5902 79.4619 78.9444C78.9695 79.6685 78.4774 80.3923 77.9763 81.1084C68.5466 95.1863 60.4619 110.377 55.8913 126.762C54.3112 132.641 53.2133 138.663 52.9249 144.748C52.5202 152.407 53.4751 160.2 56.2402 167.384C59.0563 174.773 63.8039 181.365 69.7074 186.599C72.9234 189.449 76.4253 192.02 80.3004 193.904C79.8036 193.942 79.3092 193.996 78.8318 194.134C63.69 197.849 47.2032 195.678 33.5324 188.17C25.2636 183.667 18.0223 177.3 12.4992 169.676C6.83072 161.887 2.96772 152.787 1.33673 143.29C0.246175 136.979 0.134696 130.494 0.929591 124.139C2.45637 112.15 7.53352 100.639 15.3565 91.4251C24.362 80.6916 37.0125 73.0722 50.7366 70.2174ZM115.809 95.6225C109.166 102.27 102.943 109.361 97.5262 117.053C92.5121 124.214 88.1668 131.955 85.6222 140.355C83.1212 148.515 82.6874 157.513 85.6488 165.612C87.2919 169.994 89.5676 174.38 93.3821 177.254C96.6417 179.797 100.803 180.761 104.857 180.994C105 180.887 105.146 180.788 105.291 180.688C107.974 178.175 110.666 175.645 112.973 172.771C121.448 162.558 126.596 149.607 127.337 136.351C127.749 132.571 127.406 128.772 127.066 125.001L127.054 124.862C125.813 114.375 121.889 104.25 115.809 95.6225Z" fill="currentColor"/>
</svg>
