<svg viewBox="0 0 617 196" fill="none" xmlns="http://www.w3.org/2000/svg">
<path fill-rule="evenodd" clip-rule="evenodd" d="M46.1273 4.16166C47.6527 3.36047 50.5647 2.1143 52.5985 1.39199C55.2092 0.46507 57.9074 0.0576934 61.7765 0.00530758C65.6901 -0.0476946 68.4708 0.292505 71.5018 1.19539C73.8364 1.89058 76.778 3.05478 78.0389 3.78202C79.3005 4.50987 81.3029 5.79548 82.4893 6.63982C83.6757 7.48416 85.8247 9.28993 87.2656 10.6526C88.8193 12.1225 89.8849 13.6879 89.8849 14.5014C89.8849 15.2847 89.4054 16.0243 88.7657 16.2277C88.15 16.423 86.1711 16.3029 84.3672 15.9608C82.5638 15.6188 74.1236 15.3359 65.6112 15.3322C57.0982 15.3279 46.7128 15.6533 42.5318 16.0545C36.0637 16.6757 34.8471 16.6541 34.375 15.9078C34.07 15.4252 33.816 14.8009 33.8105 14.5199C33.8056 14.2395 34.8416 12.9773 36.1124 11.7157C37.3838 10.4541 39.5329 8.56639 40.8887 7.52052C42.2446 6.47465 44.602 4.96286 46.1273 4.16166ZM44.3031 25.911C46.8318 25.2263 49.8714 24.3992 51.0578 24.072C52.2441 23.7447 56.9589 23.4489 61.5349 23.4144C66.6928 23.3756 71.4944 23.6942 74.1692 24.2519C76.5419 24.7475 80.2687 25.7231 82.4511 26.4201C84.6334 27.1171 87.9614 28.4373 89.8467 29.3537C91.732 30.2702 93.5519 31.2365 93.8909 31.5015C94.2299 31.7665 96.0326 33.0041 97.8969 34.2521C99.7612 35.4995 101.59 36.8159 101.96 37.1771C102.331 37.5382 103.995 39.0815 105.658 40.6062C107.321 42.1303 110.554 45.8694 112.842 48.9146C115.876 52.9526 116.997 54.955 116.983 56.3115C116.972 57.3351 116.595 58.6571 116.144 59.2506C115.603 59.9631 114.485 60.3292 112.849 60.3292C110.585 60.3292 110.156 60.0475 107.842 57.048C106.449 55.2434 104.127 52.6648 102.682 51.3176C101.237 49.9703 98.8059 48.0216 97.2806 46.9868C95.7552 45.952 92.6435 44.222 90.365 43.1417C88.0872 42.0619 83.7884 40.6395 80.8123 39.9813C77.8368 39.3237 73.5251 38.7795 71.2312 38.7721C68.9367 38.7647 64.4205 39.3304 61.1947 40.0293C57.9684 40.7282 53.6049 42.1673 51.4984 43.2267C49.3919 44.2861 46.4201 45.9878 44.8947 47.0084C43.3694 48.0283 40.7975 50.1078 39.1797 51.63C37.5619 53.1517 35.1627 55.8012 33.8487 57.517C32.5341 59.2334 30.928 61.608 30.2785 62.7944C29.6295 63.9808 28.6015 66.1994 27.9944 67.7248C27.3874 69.2502 26.4814 72.0235 25.9803 73.8878C25.4201 75.9753 25.0676 80.1187 25.0621 84.6732C25.0571 89.3361 25.3942 93.3211 25.9748 95.4585C26.4808 97.3228 27.4977 100.364 28.2342 102.215C28.9707 104.067 30.0387 106.424 30.6088 107.454C31.1783 108.483 31.7828 109.464 31.9523 109.633C32.1218 109.803 33.3526 111.328 34.6869 113.023C36.0218 114.718 38.3144 117.283 39.7825 118.724C41.2505 120.165 42.6045 121.343 42.7913 121.343C42.9786 121.343 44.2914 122.124 45.7082 123.078C47.1251 124.032 49.8097 125.519 51.6741 126.383C53.5384 127.246 56.7278 128.461 58.7616 129.082C61.575 129.941 64.5234 130.216 71.0876 130.232C78.4753 130.249 80.3359 130.047 84.03 128.83C86.4028 128.048 89.9897 126.577 92.0007 125.561C94.0117 124.544 96.9237 122.842 98.4719 121.777C100.02 120.713 102.605 118.413 104.216 116.666C105.828 114.92 107.76 112.693 108.51 111.717C109.259 110.74 110.159 109.738 110.51 109.489C110.86 109.24 111.848 109.032 112.705 109.026C113.562 109.021 114.879 109.449 115.632 109.977C116.54 110.612 117.002 111.572 117.002 112.821C117.002 114.026 116.016 116.181 114.268 118.795C112.763 121.044 109.782 124.696 107.642 126.911C105.503 129.125 102.07 132.246 100.016 133.844C97.961 135.443 95.95 136.751 95.5475 136.751C95.1445 136.751 94.8154 136.984 94.8154 137.27C94.8154 137.556 92.6657 138.795 90.039 140.025C87.4123 141.255 83.5037 142.82 81.354 143.504C79.2038 144.188 74.8391 145.167 71.6534 145.68C68.4684 146.193 64.3792 146.612 62.5666 146.612C60.7535 146.612 56.66 146.201 53.4694 145.7C50.2788 145.198 46.6974 144.539 45.511 144.236C44.3246 143.932 41.8508 143.08 40.0142 142.342C38.177 141.604 35.5423 140.481 34.1593 139.847C32.7757 139.212 30.0837 137.595 28.1762 136.253C26.2688 134.912 23.7727 133.02 22.6295 132.05C21.4863 131.08 18.9341 128.638 16.9583 126.625C14.9818 124.612 12.5887 121.835 11.6396 120.456C10.6905 119.076 9.27912 116.839 8.50319 115.485C7.72727 114.131 6.59265 112.014 5.98189 110.78C5.37113 109.547 4.19769 106.496 3.37369 104C2.54969 101.506 1.53711 97.5163 1.12418 95.1355C0.652094 92.4152 0.487541 87.6068 0.68106 82.1932C0.873963 76.8011 1.39659 72.0815 2.07822 69.5737C2.67665 67.3704 4.05163 63.4643 5.13324 60.8931C6.21486 58.3219 8.50997 54.1205 10.2325 51.5554C11.9557 48.991 14.0111 46.1079 14.8012 45.149C15.5907 44.19 17.3459 42.3158 18.7018 40.9846C20.0577 39.6534 23.3358 36.9472 25.9865 34.9713C28.6372 32.9948 32.8084 30.4279 35.2557 29.2662C37.7031 28.1051 41.7744 26.5951 44.3031 25.911ZM391.653 48.0555C392.792 47.6438 395.18 45.9483 396.959 44.2886C398.738 42.6289 400.802 41.2601 401.544 41.2471C402.287 41.2342 403.11 41.5707 403.373 41.9941C403.636 42.4181 405.605 47.8952 407.748 54.1661C409.892 60.437 412.334 67.6478 413.175 70.19C414.017 72.7323 414.976 75.2936 415.308 75.8822C415.639 76.4708 415.91 77.4945 415.91 78.157C415.91 78.8195 416.154 79.5128 416.453 79.6971C416.751 79.882 417.139 80.661 417.315 81.4283C417.491 82.1962 419.199 87.2616 421.111 92.6851C423.024 98.1086 425.531 105.319 426.683 108.709C427.836 112.099 429.188 115.848 429.689 117.041C430.19 118.235 431.108 119.656 431.729 120.199C432.35 120.742 434.334 121.531 436.137 121.953C437.968 122.381 440.536 122.54 441.953 122.314C443.348 122.091 445.369 121.491 446.442 120.981C447.814 120.331 448.602 119.376 449.09 117.772C449.472 116.516 450.067 111.59 450.412 106.825C450.757 102.06 451.039 89.423 451.039 78.7425C451.039 67.4888 450.76 57.8109 450.375 55.7278C450.009 53.7501 449.385 51.8235 448.988 51.4464C448.591 51.0692 447.513 50.2785 446.593 49.6899C445.672 49.1013 444.258 48.6194 443.449 48.6194C442.64 48.6194 441.105 48.3149 440.038 47.9427C438.507 47.409 438.097 46.9147 438.097 45.6007C438.097 44.6849 438.366 43.6668 438.694 43.3383C439.053 42.9796 445.091 42.7904 453.817 42.8643L468.343 42.9876L470.218 46.5018C471.25 48.4351 473.505 51.8513 475.23 54.094C476.955 56.3374 480.185 60.3908 482.408 63.1025C484.631 65.8143 486.876 68.449 487.399 68.9574C487.921 69.4659 489.579 71.4072 491.084 73.2715C492.588 75.1359 494.802 77.7847 496.003 79.1579C497.204 80.5316 499.608 83.305 501.345 85.3209C503.082 87.3374 505.44 90.0923 506.584 91.4439C507.727 92.7948 509.275 94.5279 510.023 95.2958C510.77 96.0631 511.533 96.6911 511.717 96.6911C511.902 96.6911 512.051 88.0246 512.05 77.4316C512.048 66.0805 511.783 57.1601 511.404 55.7069C511.051 54.351 510.48 52.671 510.134 51.9733C509.789 51.2756 508.624 50.2655 507.544 49.7287C506.465 49.1925 504.195 48.5152 502.501 48.2243L499.419 47.6949V45.2562V42.8181L515.751 42.8563L532.083 42.8945V45.295C532.083 47.5969 531.983 47.7165 529.618 48.2182C528.262 48.506 526.459 49.097 525.612 49.5321C524.765 49.9666 523.553 51.3471 522.919 52.5995C522.048 54.3214 521.632 57.1546 521.209 64.2279C520.902 69.3716 520.713 85.4719 520.789 100.006L520.927 126.433L519.57 127.532C518.823 128.137 517.063 128.825 515.657 129.063C513.425 129.44 512.96 129.311 511.974 128.038L504.885 118.878C501.606 114.641 498.755 111.036 498.551 110.866C498.345 110.697 495.978 107.785 493.289 104.395C490.6 101.005 488.244 98.0932 488.053 97.9237C487.862 97.7542 486.459 95.9614 484.934 93.9399C483.41 91.9178 481.747 89.8255 481.238 89.2893C480.73 88.7531 479.084 86.8512 477.581 85.0627C476.078 83.2742 473.859 80.5143 472.65 78.9292C471.442 77.3447 470.16 75.7349 469.802 75.3516C469.444 74.9682 467.918 73.189 466.412 71.3974C464.906 69.6058 462.882 67.2145 461.914 66.0836C460.948 64.9527 459.907 64.027 459.603 64.027C459.289 64.027 459.052 72.9726 459.053 84.8272C459.054 96.2677 459.344 108.124 459.699 111.174C460.054 114.225 460.616 117.422 460.948 118.279C461.28 119.136 462.09 120.173 462.748 120.583C463.405 120.994 465.756 121.674 467.972 122.094C470.922 122.654 472.096 123.162 472.361 123.994C472.559 124.619 472.57 125.734 472.384 126.472L472.048 127.814L437.428 127.704C416.561 127.638 402.576 127.361 402.224 127.009C401.902 126.687 401.729 125.648 401.841 124.699C402.023 123.143 402.375 122.908 405.433 122.297C407.297 121.924 409.18 121.394 409.618 121.121C410.056 120.847 410.285 120.161 410.13 119.597C409.974 119.032 409.232 116.49 408.482 113.948C407.732 111.405 406.765 108.216 406.334 106.86C405.902 105.504 405.076 103.217 404.5 101.776L403.45 99.1563H391.935H380.419L379.258 102.7C378.62 104.649 377.869 106.508 377.59 106.829C377.311 107.152 377.083 108.006 377.083 108.729C377.083 109.453 376.893 110.234 376.661 110.467C376.428 110.699 375.878 111.924 375.438 113.189C374.997 114.454 374.465 116.755 374.254 118.305L373.872 121.121L378.314 121.96C381.841 122.625 382.885 123.078 383.378 124.16C383.774 125.03 383.787 125.9 383.415 126.567C382.894 127.498 381.267 127.62 368.46 127.7C355.99 127.777 354.008 127.66 353.478 126.819C353.14 126.285 353.05 125.112 353.276 124.212C353.6 122.923 354.057 122.576 355.432 122.576C356.392 122.576 358.12 122.259 359.272 121.872C360.424 121.486 361.872 120.731 362.489 120.196C363.106 119.662 364.313 117.69 365.172 115.816C366.03 113.941 367.422 110.604 368.266 108.401C369.11 106.198 370.025 103.84 370.3 103.162C370.575 102.484 371.359 100.404 372.043 98.54C372.727 96.6757 374.425 92.0996 375.815 88.371C377.206 84.6423 378.738 80.7596 379.219 79.7427C379.701 78.7258 380.5 76.6458 380.996 75.1205C381.491 73.5951 382.365 71.0991 382.937 69.5737C383.509 68.0484 384.208 66.2457 384.492 65.5677C384.775 64.8898 385.755 62.2551 386.669 59.7128C387.584 57.1706 388.613 53.6761 388.956 51.9474C389.51 49.1648 389.819 48.7186 391.653 48.0555ZM568.059 47.4231C569.712 46.649 572.138 44.953 573.452 43.6538C575.037 42.0872 576.333 41.3322 577.3 41.4117C578.36 41.4992 578.973 42.1223 579.537 43.6889C579.965 44.8753 580.674 47.094 581.112 48.6194C581.551 50.1447 582.139 51.6559 582.419 51.9782C582.699 52.2999 582.928 53.1554 582.928 53.8783C582.928 54.6018 583.118 55.3833 583.35 55.6157C583.583 55.848 584.145 57.0726 584.601 58.3379C585.056 59.6025 586.397 63.5493 587.58 67.1085C588.763 70.6677 590.003 74.061 590.336 74.6496C590.668 75.2382 590.94 76.1435 590.94 76.6612C590.94 77.1789 591.205 78.0843 591.528 78.6728C591.85 79.2614 592.7 81.5454 593.417 83.7487C594.133 85.952 594.964 88.3094 595.264 88.9873C595.563 89.6652 596.218 91.4679 596.718 92.9933C597.219 94.5186 599.138 100.065 600.984 105.319C602.831 110.573 604.754 115.843 605.259 117.029C605.764 118.216 606.746 119.692 607.441 120.31C608.135 120.929 610.544 121.75 612.793 122.136L616.883 122.836L616.7 125.249L616.517 127.663L597.25 127.739C579.115 127.81 577.963 127.749 577.627 126.692C577.431 126.074 577.43 124.931 577.626 124.152C577.915 122.999 578.533 122.664 580.962 122.342C582.602 122.124 584.403 121.602 584.964 121.182C585.896 120.484 585.745 119.652 583.198 111.482C581.666 106.567 580.067 101.853 579.645 101.005L578.876 99.4645L567.424 99.2968L555.972 99.1298L555.307 100.838C554.942 101.777 553.519 105.915 552.145 110.033C550.772 114.15 549.648 118.336 549.648 119.333C549.648 121.088 549.783 121.171 553.951 121.958C557.219 122.574 558.345 123.054 558.629 123.95C558.835 124.599 558.852 125.734 558.666 126.472C558.332 127.806 558.239 127.814 544.282 127.708C536.556 127.649 529.888 127.58 529.464 127.554C528.988 127.524 528.694 126.593 528.694 125.119V122.732L531.626 122.451C533.24 122.296 535.389 121.775 536.403 121.294C537.643 120.705 538.782 119.309 539.883 117.029C540.782 115.165 542.1 112.325 542.81 110.719C543.52 109.112 544.101 107.579 544.101 107.311C544.101 107.042 545.031 104.612 546.168 101.911C547.305 99.2093 548.848 95.1966 549.598 92.9933C550.348 90.79 551.194 88.4326 551.478 87.7547C551.763 87.0767 552.829 84.3034 553.847 81.5916C554.866 78.8799 557.232 72.6398 559.105 67.7248C560.978 62.8098 563.083 57.0091 563.783 54.8348C564.483 52.6605 565.055 50.4196 565.055 49.8557C565.055 49.232 566.232 48.2792 568.059 47.4231ZM124.398 45.875C124.398 45.067 124.54 44.0365 124.713 43.5854C124.969 42.9167 130.897 42.7645 156.721 42.7645H188.413L188.812 44.8833C189.03 46.0482 189.457 50.2082 189.761 54.1279C190.065 58.047 190.32 61.7294 190.328 62.3106C190.336 62.8917 189.762 63.6782 189.053 64.0578C188.343 64.4374 187.105 64.5829 186.301 64.3814C185.266 64.1213 184.655 63.3429 184.205 61.7097C183.857 60.4419 182.731 57.9471 181.703 56.1654C180.267 53.6725 179.165 52.6075 176.923 51.5431C174.282 50.2889 173.092 50.1601 164.15 50.1601H154.289V64.9514V79.7427L161.993 79.9042C168.718 80.0459 169.943 79.9141 171.643 78.8694C173.127 77.9573 173.823 76.8695 174.571 74.2983C175.11 72.4432 175.551 70.6393 175.551 70.2905C175.551 69.9423 176.126 69.4745 176.828 69.2514C177.531 69.0283 178.709 68.9975 179.447 69.183C180.777 69.517 180.79 69.6483 180.79 83.6939V97.8676L179.351 98.2288C178.559 98.4272 177.417 98.4328 176.812 98.2411C176.056 98.0007 175.472 96.757 174.94 94.2536C174.414 91.7718 173.637 90.1053 172.496 89.0119C170.842 87.428 170.726 87.4114 162.556 87.5821L154.289 87.7547V101.313C154.289 111.946 154.485 115.297 155.196 116.844C155.694 117.929 156.665 119.102 157.353 119.452C158.04 119.803 159.851 120.364 161.376 120.701C162.902 121.038 166.252 121.32 168.823 121.328C171.394 121.336 175.138 121.015 177.143 120.615C180.325 119.979 181.226 119.449 184.216 116.455C186.101 114.568 188.447 111.428 189.43 109.479C190.412 107.531 191.644 105.892 192.166 105.838C192.689 105.784 193.658 105.791 194.321 105.853C194.984 105.915 195.751 106.306 196.023 106.721C196.295 107.137 196.363 108.586 196.172 109.942C195.981 111.297 195.523 113.794 195.153 115.488C194.784 117.183 193.932 120.234 193.26 122.268C192.588 124.302 191.84 126.336 191.598 126.79C191.239 127.463 184.857 127.606 156.7 127.574C137.747 127.553 122.033 127.528 121.779 127.52C121.525 127.513 121.321 126.743 121.326 125.811C121.331 124.88 121.539 123.816 121.788 123.45C122.037 123.084 124.598 122.382 127.479 121.892C132.283 121.074 132.795 120.848 133.643 119.168C134.417 117.635 134.598 112.583 134.761 88.0628C134.868 71.9619 134.772 57.2803 134.548 55.4369C134.229 52.8035 133.744 51.7145 132.286 50.3524C131.118 49.2609 129.755 48.6194 128.607 48.6194C127.603 48.6194 126.246 48.3322 125.59 47.9815C124.924 47.6247 124.398 46.6959 124.398 45.875ZM201.128 43.9971L210.681 43.3506C215.935 42.995 224.457 42.6375 229.62 42.5556C234.782 42.4742 241.438 42.7059 244.411 43.0702C247.384 43.435 251.064 44.0304 252.589 44.3934C254.115 44.7564 256.749 45.7024 258.444 46.4962C260.139 47.29 262.544 48.8782 263.79 50.0258C265.035 51.1733 266.577 53.0598 267.215 54.2179C267.854 55.3759 268.751 57.9176 269.209 59.8663C269.896 62.7882 269.904 64.0301 269.25 66.9538C268.814 68.9032 267.669 71.6451 266.706 73.0466C265.742 74.4487 263.644 76.4628 262.043 77.5228C260.443 78.5828 258.069 79.7372 256.767 80.0879C255.465 80.4379 254.551 80.9679 254.735 81.265C254.918 81.5621 255.967 82.0015 257.064 82.2412C258.162 82.4816 260.533 83.3506 262.333 84.1727C264.133 84.9949 266.72 86.6743 268.082 87.9044C269.443 89.1352 271.187 91.4075 271.956 92.9544C272.725 94.5007 273.709 97.4837 274.142 99.5828C274.778 102.664 274.78 104.206 274.152 107.595C273.725 109.902 272.828 112.88 272.159 114.21C271.49 115.541 269.883 117.761 268.588 119.142C267.292 120.524 264.758 122.404 262.955 123.32C261.152 124.236 258.567 125.251 257.211 125.576C255.856 125.901 253.221 126.527 251.357 126.967C248.893 127.549 241.444 127.774 224.078 127.791C201.496 127.813 200.169 127.753 199.832 126.692C199.636 126.074 199.637 124.926 199.834 124.14C200.134 122.946 200.852 122.581 204.207 121.914C207.317 121.296 208.465 120.759 209.298 119.534C210.286 118.081 210.372 115.368 210.372 85.8448C210.372 59.3837 210.22 53.4506 209.503 52.112C208.897 50.9798 207.962 50.3752 206.421 50.1188C205.205 49.9167 203.516 49.5426 202.669 49.2881C201.366 48.8967 201.128 48.4511 201.128 46.4112V43.9971ZM276.113 46.5677C275.996 45.9477 276.051 44.8383 276.236 44.1025L276.571 42.7645L295.857 42.8249L315.144 42.8853V45.2901V47.6949L311.924 48.3131C310.038 48.6748 308.123 49.5118 307.302 50.3339L305.9 51.7366V77.7576C305.9 103.372 305.922 103.846 307.336 108.067C308.126 110.426 309.344 113.199 310.042 114.23C310.741 115.262 312.31 117.006 313.529 118.108C314.749 119.21 316.18 120.111 316.709 120.111C317.238 120.111 317.983 120.423 318.366 120.805C318.79 121.229 321.593 121.508 325.568 121.523C331.233 121.543 332.443 121.357 334.918 120.084C336.481 119.28 338.813 117.425 340.101 115.962C341.389 114.499 342.906 112.327 343.471 111.137C344.036 109.946 344.865 107.526 345.315 105.759C345.764 103.992 346.44 99.8638 346.816 96.5863C347.193 93.3082 347.483 86.2361 347.462 80.8706C347.441 75.5044 347.074 67.1553 346.646 62.3167C346.037 55.4209 345.612 53.1794 344.682 51.9462C344.028 51.0815 342.801 49.9931 341.953 49.5284C341.106 49.0637 339.096 48.514 337.487 48.3057C335.409 48.0376 334.364 47.5593 333.88 46.6552C333.423 45.8016 333.395 44.9499 333.796 44.0711C334.384 42.778 334.623 42.7608 350.653 42.8508L366.914 42.9426V45.3184C366.914 47.6746 366.888 47.6998 363.885 48.2792C361.817 48.6785 360.243 49.4767 358.924 50.7943C357.217 52.5027 356.909 53.3661 356.253 58.2917C355.829 61.4724 355.507 71.2254 355.501 81.045C355.493 93.1554 355.23 99.7005 354.61 103.204C354.126 105.939 353.127 109.787 352.39 111.756C351.654 113.725 350.244 116.531 349.259 117.991C348.274 119.451 346.157 121.604 344.557 122.774C342.955 123.945 340.397 125.472 338.872 126.168C337.346 126.863 334.989 127.706 333.633 128.041C332.277 128.375 329.114 128.955 326.604 129.331C323.293 129.825 320.333 129.829 315.819 129.342C312.397 128.974 308.488 128.383 307.132 128.028C305.776 127.675 302.941 126.555 300.831 125.54C298.721 124.525 295.905 122.637 294.573 121.344C293.241 120.052 291.297 117.204 290.253 115.016C289.209 112.828 287.934 109.04 287.42 106.598C286.683 103.092 286.486 97.3715 286.486 79.4247C286.486 65.4081 286.23 55.4967 285.817 53.5738C285.367 51.4759 284.712 50.2082 283.814 49.7004C283.08 49.285 281.095 48.6637 279.403 48.3198C277.212 47.8749 276.265 47.3701 276.113 46.5677ZM245.428 53.4284C244.452 52.5144 242.633 51.3404 241.387 50.8196C240.141 50.2994 237.645 49.7176 235.841 49.5266C233.687 49.2992 232.03 49.4606 231.019 49.9968L229.478 50.8128V64.9699V79.1264L231.766 79.6916C233.322 80.0762 235.444 79.9948 238.398 79.4377C241.732 78.8084 243.302 78.1373 245.161 76.5466C246.779 75.1611 248.023 73.3048 248.914 70.9456C249.962 68.1685 250.168 66.6494 249.881 63.8156C249.679 61.8348 248.994 59.0614 248.359 57.6525C247.723 56.2437 246.404 54.3424 245.428 53.4284ZM396.127 76.0449C395.845 75.367 394.875 72.524 393.971 69.7278C393.066 66.9316 392.156 64.6476 391.947 64.6525C391.737 64.6581 389.679 70.4057 387.372 77.4248C383.469 89.3078 383.254 90.2421 384.255 90.9743C384.968 91.4963 387.554 91.7607 391.941 91.7607C395.577 91.7607 398.991 91.5924 399.527 91.3866C400.063 91.1807 400.502 90.6347 400.502 90.1731C400.502 89.7114 399.633 86.6213 398.571 83.3056C397.509 79.9899 396.409 76.7228 396.127 76.0449ZM571.485 75.7368C570.699 73.5335 569.591 70.2751 569.025 68.4952C568.459 66.7153 567.768 65.2596 567.491 65.2596C567.214 65.2596 566.813 65.8839 566.599 66.6463C566.385 67.4086 565.958 68.5876 565.65 69.2656C565.341 69.9435 563.858 74.2841 562.353 78.9107C560.849 83.5379 559.281 87.9531 558.869 88.7229C558.236 89.9062 558.293 90.2489 559.241 90.9416C560.02 91.5117 562.537 91.7607 567.515 91.7607C571.805 91.7607 574.935 91.495 575.334 91.0969C575.745 90.6858 575.816 89.688 575.521 88.4776C575.259 87.4022 574.566 84.9967 573.981 83.1324C573.395 81.2681 572.272 77.94 571.485 75.7368ZM248.675 90.6174C247.561 89.5377 245.148 88.106 243.311 87.4342C240.992 86.5868 238.42 86.2139 234.891 86.2139C230 86.2139 229.795 86.2712 229.427 87.7374C229.217 88.5756 229.15 95.024 229.279 102.066C229.474 112.647 229.697 115.212 230.565 116.826C231.143 117.901 232.426 119.358 233.415 120.062C234.792 121.043 236.152 121.343 239.204 121.343C241.399 121.343 244.186 120.929 245.398 120.422C246.61 119.916 248.327 118.737 249.213 117.803C250.099 116.869 251.416 114.995 252.141 113.639C253.242 111.578 253.459 110.115 253.471 104.703C253.482 99.2124 253.273 97.8035 252.092 95.4055C251.326 93.8512 249.789 91.6966 248.675 90.6174ZM360.049 151.85C359.854 152.359 359.846 153.171 360.032 153.655C360.218 154.139 361.149 154.624 362.101 154.733C363.453 154.889 363.993 155.404 364.568 157.089C365.033 158.453 365.329 163.888 365.372 171.88C365.431 182.468 365.62 184.953 366.541 187.224C367.145 188.713 368.308 190.629 369.126 191.481C369.943 192.332 371.998 193.676 373.693 194.467C376.283 195.675 377.776 195.905 383.055 195.91C386.51 195.914 389.485 195.675 389.668 195.379C389.85 195.084 390.815 194.68 391.81 194.481C392.807 194.281 394.58 193.276 395.752 192.248C396.923 191.22 398.471 189.008 399.191 187.333C400.329 184.688 400.566 182.503 400.993 170.72C401.421 158.938 401.632 156.992 402.599 155.923C403.211 155.247 404.446 154.608 405.343 154.504C406.621 154.356 406.973 153.983 406.973 152.775V151.234L398.149 151.063L389.324 150.891L389.52 152.603C389.683 154.021 390.05 154.348 391.655 154.504C392.721 154.608 394.108 155.261 394.737 155.956C395.774 157.102 395.88 158.424 395.88 170.251C395.88 182.801 395.824 183.393 394.387 186.291C393.198 188.688 392.331 189.549 390.126 190.525C388.105 191.419 386.586 191.658 384.502 191.412C382.932 191.225 380.934 190.748 380.063 190.351C379.191 189.954 377.851 188.479 377.083 187.072C375.803 184.723 375.664 183.504 375.38 172.105C375.21 165.279 375.257 158.7 375.485 157.485C375.848 155.552 376.206 155.191 378.34 154.617C379.682 154.256 380.781 153.716 380.781 153.418C380.781 153.119 380.612 152.437 380.406 151.901C380.087 151.068 378.599 150.926 370.218 150.926C362.063 150.926 360.344 151.082 360.049 151.85ZM309.166 154.624C307.656 154.624 307.44 154.39 307.44 152.759V150.895L317.455 151.065L327.47 151.234V152.775C327.47 153.954 327.109 154.362 325.929 154.513C325.082 154.622 324.042 155.161 323.618 155.71C323.111 156.367 322.848 158.984 322.848 163.37V170.031H332.092H341.337V163.455C341.337 158.2 341.132 156.651 340.317 155.751C339.756 155.131 338.508 154.624 337.544 154.624C336.01 154.624 335.79 154.394 335.79 152.793V150.962L346.113 151.098L356.436 151.234V152.775C356.436 154.023 356.092 154.355 354.617 154.523C353.616 154.637 352.446 155.191 352.017 155.755C351.434 156.522 351.232 160.946 351.218 173.267C351.199 188.945 351.258 189.813 352.431 190.986C353.108 191.664 354.356 192.218 355.204 192.218C356.44 192.218 356.745 192.525 356.745 193.774V195.329L346.422 195.16C336.244 194.994 336.096 194.972 335.901 193.605C335.741 192.476 335.999 192.218 337.288 192.218C338.159 192.218 339.435 191.655 340.124 190.967C341.266 189.824 341.36 189.061 341.202 182.184L341.029 174.654H332.092H323.156L322.979 182.357C322.812 189.605 322.88 190.125 324.126 191.14C324.854 191.733 326.113 192.218 326.922 192.218C328.082 192.218 328.395 192.546 328.395 193.759V195.3H317.917H307.44V193.759C307.44 192.589 307.762 192.218 308.778 192.218C309.514 192.218 310.623 191.759 311.243 191.198C312.284 190.257 312.371 188.864 312.371 173.141C312.371 160.711 312.17 155.903 311.631 155.363C311.224 154.957 310.115 154.624 309.166 154.624ZM268.836 153.699C268.641 153.191 268.641 152.359 268.836 151.85C269.131 151.081 270.885 150.926 279.328 150.926C286.888 150.926 289.531 151.122 289.724 151.696C289.866 152.12 289.857 152.952 289.704 153.545C289.539 154.181 288.838 154.624 287.999 154.624C287.215 154.624 286.138 155.059 285.605 155.592C284.775 156.422 284.637 158.823 284.637 172.403C284.637 185.745 284.789 188.463 285.597 189.616C286.468 190.861 287.068 190.986 292.149 190.986H297.742L299.792 188.812C300.92 187.616 302.204 185.883 302.647 184.96C303.123 183.967 303.95 183.282 304.675 183.282C305.667 183.282 305.935 183.76 306.084 185.797C306.192 187.273 305.731 189.748 304.968 191.788L303.667 195.264L286.198 195.26C270.967 195.257 268.681 195.133 268.36 194.298C268.158 193.771 268.129 193.119 268.296 192.849C268.463 192.579 269.57 192.176 270.756 191.953C271.942 191.731 273.193 191.024 273.536 190.384C273.911 189.682 274.16 182.8 274.16 173.113C274.16 163.19 273.915 156.55 273.522 155.816C273.109 155.045 272.232 154.624 271.037 154.624C269.965 154.624 269.042 154.237 268.836 153.699ZM410.24 154.624C408.734 154.624 408.514 154.389 408.514 152.775V150.926H418.925C427.612 150.926 429.395 151.079 429.692 151.85C429.886 152.359 429.886 153.191 429.692 153.699C429.491 154.22 428.574 154.624 427.589 154.624C426.481 154.624 425.489 155.125 424.881 155.994C424.072 157.149 423.922 159.894 423.922 173.513V189.664L425.546 190.941C426.439 191.643 427.67 192.218 428.283 192.218C428.895 192.218 429.552 192.47 429.742 192.779C429.933 193.087 429.92 193.781 429.713 194.32C429.39 195.162 427.874 195.3 418.925 195.3H408.514V193.759C408.514 192.822 408.866 192.218 409.41 192.218C409.902 192.218 411.011 191.897 411.875 191.503L413.445 190.788V173.445C413.445 160.779 413.245 155.903 412.705 155.363C412.298 154.957 411.189 154.624 410.24 154.624ZM432.86 152.153C432.646 152.828 432.644 153.66 432.855 154.002C433.066 154.344 434.045 154.624 435.03 154.624C436.17 154.624 437.053 155.057 437.459 155.816C437.853 156.553 438.097 163.358 438.097 173.654C438.097 190.156 438.085 190.308 436.727 191.259C435.974 191.786 434.568 192.218 433.603 192.218C432.135 192.218 431.88 192.446 432.045 193.605L432.242 194.992L449.989 195.113L467.735 195.234L468.268 193.88C468.561 193.136 469.264 190.943 469.83 189.008C470.397 187.072 470.68 184.923 470.461 184.232C470.241 183.539 469.559 182.974 468.946 182.974C468.255 182.974 467.059 184.245 465.809 186.309C464.697 188.143 463.125 189.945 462.314 190.315C461.505 190.684 458.636 190.986 455.941 190.986C451.861 190.986 450.833 190.779 449.807 189.753C448.638 188.585 448.574 187.699 448.574 172.764C448.574 163.081 448.82 156.548 449.212 155.816C449.622 155.049 450.501 154.624 451.677 154.624C453.297 154.624 453.504 154.414 453.504 152.775V150.926H443.377C433.806 150.926 433.228 150.993 432.86 152.153ZM470.984 153.699C470.789 153.191 470.791 152.352 470.99 151.836C471.296 151.036 472.888 150.921 481.687 151.065L492.023 151.234V152.775C492.023 153.983 491.671 154.356 490.393 154.504C489.496 154.608 488.3 155.204 487.735 155.828C486.821 156.838 486.729 158.734 486.901 173.1C487.081 188.242 487.167 189.291 488.289 190.112C489.082 190.691 491.123 190.986 494.339 190.986C497.008 190.986 499.786 190.668 500.512 190.279C501.239 189.89 502.321 188.989 502.916 188.276C503.511 187.563 504.437 186.079 504.973 184.977C505.509 183.875 506.282 182.978 506.69 182.983C507.098 182.989 507.821 183.239 508.298 183.541C509.008 183.991 509.043 184.688 508.495 187.384C508.126 189.195 507.388 191.712 506.855 192.976L505.885 195.274L488.323 195.269L470.761 195.264V193.741C470.761 192.546 471.078 192.218 472.233 192.218C473.043 192.218 474.361 191.688 475.161 191.041C476.607 189.871 476.617 189.775 476.811 174.879C476.946 164.562 476.777 159.074 476.269 157.259C475.585 154.817 475.377 154.624 473.435 154.624C472.14 154.624 471.203 154.271 470.984 153.699ZM509.588 152.775C509.588 154.389 509.807 154.624 511.314 154.624C512.263 154.624 513.372 154.957 513.779 155.363C514.319 155.903 514.519 160.779 514.519 173.445V190.788L512.949 191.503C512.085 191.897 510.976 192.218 510.484 192.218C509.939 192.218 509.588 192.822 509.588 193.759V195.3H519.682C527.767 195.3 529.924 195.121 530.52 194.402C530.929 193.909 531.086 193.215 530.867 192.862C530.648 192.508 529.969 192.218 529.357 192.218C528.744 192.218 527.513 191.643 526.62 190.941L524.996 189.664V173.513C524.996 160.103 525.153 157.138 525.927 156.034C526.439 155.302 527.617 154.617 528.546 154.51C529.87 154.357 530.276 153.95 530.429 152.621L530.624 150.926H520.106H509.588V152.775ZM535.685 154.624C534.49 154.624 534.24 154.303 534.24 152.775V150.926H550.795H567.351L567.776 156.171C568.011 159.055 568.033 161.69 567.825 162.026C567.617 162.361 566.979 162.625 566.406 162.61C565.773 162.595 564.805 161.393 563.939 159.547C562.758 157.028 562.127 156.402 560.242 155.879C558.991 155.531 556.096 155.246 553.808 155.244L549.648 155.24V162.636V170.031H553.887C556.819 170.031 558.352 169.758 558.86 169.146C559.263 168.659 559.803 167.481 560.058 166.527C560.4 165.246 560.902 164.793 561.978 164.793C563.426 164.793 563.434 164.835 563.494 172.344C563.547 179.061 563.433 179.933 562.461 180.241C561.861 180.432 561.12 180.435 560.816 180.247C560.513 180.059 560.08 178.92 559.854 177.714C559.553 176.112 559.006 175.356 557.821 174.906C556.928 174.567 554.794 174.371 553.077 174.471L549.956 174.654L549.78 181.354C549.643 186.606 549.812 188.371 550.565 189.52C551.451 190.872 551.93 190.986 556.721 190.986C559.578 190.986 562.553 190.695 563.332 190.34C564.11 189.984 565.372 188.74 566.134 187.575C566.896 186.41 567.521 185.185 567.521 184.853C567.521 184.521 568.006 184 568.599 183.695C569.192 183.39 570.025 183.265 570.448 183.416C570.872 183.568 571.218 184.402 571.218 185.27C571.218 186.137 570.655 188.738 569.967 191.05L568.715 195.253L550.707 195.122C533.672 194.998 532.699 194.931 532.699 193.856C532.699 193.041 533.568 192.433 535.781 191.699L538.863 190.678L539.026 173.789C539.173 158.726 539.079 156.777 538.161 155.762C537.594 155.136 536.48 154.624 535.685 154.624ZM575.07 151.887C576.172 151.707 577.905 151.458 578.922 151.335C579.939 151.212 583.545 151.069 586.934 151.019C590.324 150.968 595.086 151.307 597.516 151.77C599.946 152.234 602.922 153.223 604.13 153.97C605.338 154.716 606.943 156.193 607.696 157.252C608.785 158.78 609.067 160.026 609.067 163.301C609.067 166.853 608.831 167.734 607.367 169.654C606.433 170.879 604.875 172.292 603.905 172.793C602.521 173.509 602.219 174.005 602.497 175.104C602.691 175.873 603.026 176.641 603.241 176.811C603.457 176.98 604.376 178.644 605.285 180.508C606.194 182.373 607.739 185.096 608.72 186.56C609.7 188.024 611.494 189.897 612.706 190.72C613.919 191.544 615.361 192.218 615.91 192.218C616.594 192.218 616.848 192.655 616.714 193.597C616.56 194.675 615.98 195.064 614.052 195.385C612.696 195.61 610.067 195.519 608.209 195.181C606.352 194.844 604.133 194.205 603.279 193.76C602.424 193.315 601.128 192.301 600.397 191.506C599.667 190.711 598.497 189.091 597.798 187.904C597.1 186.718 595.808 184.222 594.929 182.357C594.049 180.493 593.111 178.552 592.843 178.043C592.575 177.535 591.343 177.033 590.106 176.927L587.855 176.736L588.031 183.588C588.164 188.782 588.425 190.583 589.111 191.037C589.608 191.366 590.778 191.801 591.711 192.004C592.98 192.28 593.405 192.74 593.405 193.836V195.3H583.236H573.067V193.826C573.067 192.733 573.504 192.242 574.759 191.927C575.689 191.694 576.799 191.214 577.224 190.861C577.811 190.374 577.998 186.147 577.998 173.421C577.998 160.718 577.81 156.476 577.227 156.017C576.804 155.683 575.695 155.228 574.762 155.005C573.636 154.736 573.067 154.2 573.067 153.407C573.067 152.539 573.613 152.125 575.07 151.887ZM596.562 157.804C597.13 158.558 597.908 160.218 598.29 161.493C598.807 163.221 598.804 164.526 598.277 166.621C597.823 168.422 596.901 169.994 595.711 170.996C594.261 172.216 593.301 172.519 591.343 172.374C589.265 172.22 588.759 171.923 588.407 170.648C588.173 169.8 587.954 166.284 587.92 162.834C587.873 157.984 588.071 156.348 588.794 155.625C589.617 154.802 590.079 154.794 592.629 155.562C594.224 156.042 595.993 157.051 596.562 157.804Z" fill="currentColor"/>
</svg>
