<svg viewBox="0 0 198 196" fill="none" xmlns="http://www.w3.org/2000/svg">
<path fill-rule="evenodd" clip-rule="evenodd" d="M105.928 2.81445C103.162 1.04906 100.107 -0.900912 96.8986 0.606448C79.055 11.7785 61.4944 23.3925 43.9329 35.0072C32.3926 42.6396 20.852 50.2722 9.2303 57.7799C4.1391 60.7927 -0.0700998 66.4865 1.10009 72.678C1.17869 78.5639 6.50568 82.0658 10.9507 84.8777C17.864 89.393 24.7784 93.9072 31.6929 98.4215C53.156 112.434 74.6206 126.448 96.0603 140.497C98.1736 141.824 101.073 141.746 103.143 140.357C119.506 129.485 135.951 118.732 152.396 107.979C165.5 99.411 178.604 90.8427 191.667 82.2142C199.474 77.516 200.006 65.0194 192.453 59.8408C178.385 50.3562 164.178 41.08 149.97 31.8033C135.829 22.5709 121.688 13.338 107.684 3.8987C107.113 3.57063 106.527 3.19687 105.928 2.81445ZM134.564 46.3623C132.857 43.6907 131.149 41.0192 129.481 38.3233C136.605 44.6887 144.369 50.247 152.131 55.8031C154.549 57.5341 156.966 59.2649 159.364 61.0198C154.107 61.2818 148.841 61.3167 143.584 60.9761C140.729 56.0083 137.647 51.1851 134.564 46.3623ZM41.1616 61.0898C40.5545 61.0689 39.9476 61.048 39.3409 61.0285C46.9482 55.7776 54.3581 50.2454 61.7673 44.7139C64.2158 42.8859 66.6642 41.0579 69.1197 39.2402C66.2545 43.3054 63.5726 47.4908 60.8904 51.6769C58.8881 54.8016 56.8857 57.9267 54.8066 61.0023C50.2687 61.4029 45.7104 61.2462 41.1616 61.0898ZM89.9735 61.177C85.2316 61.1857 80.4897 61.1944 75.7478 61.1682C76.074 60.7001 76.4005 60.232 76.7269 59.7639C81.3207 53.1774 85.9172 46.5869 89.9124 39.6157C89.9255 43.2093 89.9342 46.8028 89.943 50.3964C89.9517 53.9899 89.9604 57.5834 89.9735 61.177ZM109.116 61.177C109.011 54.2169 109.002 47.2482 109.116 40.2882C110.517 42.432 111.92 44.5751 113.324 46.7183C116.476 51.533 119.629 56.3487 122.765 61.177C118.215 61.1857 113.666 61.1857 109.116 61.177ZM54.3875 91.3138C49.3858 87.587 44.3841 83.8603 39.3671 80.1533C41.7551 80.1655 44.145 80.1644 46.5359 80.1633C49.2686 80.1621 52.0027 80.1608 54.7368 80.1795C55.5155 81.4083 56.2912 82.6397 57.067 83.8713C61.033 90.1673 65.0036 96.4704 69.4078 102.474C64.3909 98.7672 59.3892 95.0405 54.3875 91.3138ZM77.5183 82.8372C76.9162 81.9456 76.3141 81.0541 75.7129 80.162C78.097 80.1664 80.481 80.1664 82.8661 80.1664C85.2513 80.1664 87.6375 80.1664 90.0259 80.1707C89.9648 87.4626 89.9473 94.7632 90.0346 102.055C86.0768 95.5097 81.7968 89.1724 77.5183 82.8372ZM109.063 101.409C109.02 94.3091 109.002 87.2094 109.168 80.1096C111.539 80.0916 113.911 80.1153 116.282 80.1389C118.522 80.1612 120.761 80.1835 123.001 80.1707C118.285 87.2006 113.613 94.2654 109.063 101.409ZM132.04 99.3306C136.073 92.8113 140.106 86.2922 144.693 80.1445C149.749 80.1795 154.797 80.1707 159.853 80.1445C157.222 82.0856 154.562 83.9906 151.901 85.8958C144.254 91.3708 136.604 96.848 129.647 103.19C130.447 101.906 131.244 100.618 132.04 99.3306ZM10.776 92.9817C7.05587 90.7112 1.58915 93.7065 1.29224 97.9943C1.27954 117.901 1.30379 137.808 1.32804 157.711C1.33713 165.171 1.34622 172.632 1.35337 180.091C1.35855 180.538 1.35586 180.99 1.35315 181.445C1.3376 184.061 1.32148 186.772 2.79427 189.033C5.32678 192.963 9.56218 196.413 14.5224 195.932C71.2679 195.994 128.022 195.967 184.768 195.941C191.841 196.168 197.806 189.575 197.946 182.72C197.842 163.91 197.879 145.097 197.916 126.282C197.935 116.62 197.954 106.958 197.954 97.2957C196.714 95.6801 195.492 94.0559 194.304 92.3966C190.758 91.8552 187.274 93.0516 184.366 95.0339C166 107.23 147.679 119.499 129.357 131.769C123.251 135.858 117.145 139.947 111.037 144.034C107.238 146.575 103.352 149.011 99.2303 151.002C85.3278 142.441 71.7886 133.324 58.2482 124.206C50.3807 118.909 42.5127 113.611 34.5728 108.421C31.6965 106.585 28.8838 104.649 26.0715 102.714C21.0886 99.2846 16.1071 95.8566 10.776 92.9817ZM112.062 167.779C112.805 167.321 113.546 166.864 114.294 166.433C122.43 161.581 130.444 156.528 138.459 151.474C150.394 143.949 162.329 136.423 174.664 129.563C175.761 134.95 175.701 140.439 175.641 145.912C175.625 147.413 175.608 148.912 175.616 150.408C175.604 152.202 175.617 153.998 175.63 155.796C175.676 162.042 175.722 168.298 174.725 174.476C141.77 174.73 108.816 174.72 75.8582 174.71C61.2093 174.706 46.5597 174.702 31.9093 174.72C29.1149 174.799 26.3466 174.301 23.6481 173.594C23.7013 167.763 23.6926 161.931 23.684 156.098C23.6713 147.552 23.6586 139.006 23.8403 130.463C25.8754 129.919 27.6342 131.013 29.2887 132.042C29.4942 132.17 29.6981 132.296 29.9008 132.419C48.947 144.182 67.9408 156.041 86.9258 167.9C91.8074 170.957 97.7457 172.616 103.483 171.62C106.652 171.114 109.37 169.438 112.062 167.779Z" fill="currentColor"/>
</svg>
