<svg viewBox="0 0 197 197" fill="none" xmlns="http://www.w3.org/2000/svg">
<path fill-rule="evenodd" clip-rule="evenodd" d="M108.138 1.27746C100.793 -0.0178516 93.3231 0.541722 85.9987 1.64014C50.5594 5.43281 18.9171 31.0799 6.70634 64.3331C0.76174 80.0944 -0.234212 97.3583 1.89256 113.959C5.2954 138.249 18.9483 160.507 38.1515 175.605C62.1166 194.765 95.4395 201.211 124.914 192.848C152.696 185.419 176.361 164.683 188.146 138.591C195.948 121.492 197.794 102.177 195.398 83.6695C192.535 63.2347 182.679 43.9087 167.947 29.453C152.167 13.4119 130.609 3.10125 108.138 1.27746ZM18.4088 56.2296C29.0738 35.7948 47.9035 19.7641 69.8352 12.5622C100.181 2.17899 135.9 9.40163 159.419 31.3079C156.661 31.5359 153.894 31.5723 151.127 31.6087L150.373 31.6188C150.499 72.6277 150.489 113.627 150.478 154.635L150.476 162.828C151.97 162.852 153.464 162.858 154.958 162.863C157.324 162.872 159.689 162.881 162.054 162.963C145.445 179.916 121.563 189.387 97.8464 189.004C81.0397 189.035 64.2953 184.071 50.1548 175.025C30.1424 162.486 15.4209 141.803 10.2233 118.788C5.60664 97.8453 8.14839 75.1722 18.4088 56.2296ZM162.457 57.676V57.6753V57.6745C162.425 49.9265 162.393 42.18 162.552 34.4374C175.552 46.7687 184.1 63.4937 187.679 80.9752C189.369 89.0877 189.154 97.4286 188.942 105.67L188.941 105.701C188.932 106.05 188.923 106.398 188.914 106.747C187.171 127.679 177.585 147.823 162.646 162.58C162.373 144.184 162.418 125.784 162.464 107.385C162.493 95.7175 162.522 84.0504 162.469 72.3847C162.497 67.4842 162.477 62.5837 162.457 57.6838V57.6799V57.676ZM59.4711 25.878C50.4349 25.8469 41.4402 30.396 36.4501 37.9917C31.0138 46.5511 29.6133 57.2762 31.5325 67.1309C33.5271 77.6531 38.6741 87.0778 43.7544 96.3804L43.7546 96.3808L43.7548 96.3812C44.303 97.3849 44.8503 98.3872 45.3929 99.3893C40.0396 96.7365 35.2674 93.0371 31.3354 88.5398C23.0566 103.949 18.554 122.415 23.2226 139.648C26.2415 150.342 33.6489 160.134 44.0753 164.486C55.8504 169.419 70.3643 167.626 80.2616 159.44C85.7705 155.191 88.8725 148.839 91.3105 142.508C91.4766 146.545 91.4566 150.586 91.4367 154.628C91.423 157.402 91.4093 160.178 91.4557 162.953C94.8074 162.997 98.159 162.95 101.511 162.903L101.512 162.903C102.071 162.895 102.63 162.888 103.189 162.88C103.501 131.542 103.452 100.199 103.402 68.8575V68.8565V68.8554V68.8545V68.8535C103.382 56.4103 103.363 43.9675 103.366 31.5255C99.3922 31.4944 95.4188 31.4944 91.4454 31.5462C91.3403 34.8672 91.3759 38.1904 91.4116 41.5127C91.4534 45.4056 91.4952 49.2973 91.3105 53.1831C90.5262 51.5949 89.9835 49.9089 89.4415 48.2247C88.6644 45.81 87.8885 43.3992 86.4033 41.2869C81.3406 31.5773 70.4058 25.3909 59.4711 25.878ZM45.8909 68.2501C43.4114 60.7684 42.4569 52.2919 45.7145 44.8827C48.3496 39.9087 53.7236 36.1368 59.4919 36.313C64.3783 36.0643 68.9742 38.5616 72.5326 41.7118C79.5043 48.7065 82.8138 58.5197 83.9031 68.1568C86.3722 66.9651 88.8621 65.8045 91.4039 64.7683C91.3233 72.79 91.3644 80.8117 91.4055 88.8326V88.8333V88.8339C91.4597 99.401 91.5138 109.967 91.2897 120.529C86.7353 107.617 79.8778 95.6899 72.5637 84.1668C72.1632 83.502 71.7604 82.8368 71.357 82.1707C66.6927 74.4678 61.9516 66.6382 59.8031 57.8254C59.7746 57.4894 59.7269 57.1299 59.6776 56.7585C59.4395 54.965 59.1646 52.8936 60.8405 51.8463C62.7287 51.3489 64.3471 52.7893 65.0733 54.3955C68.6359 61.3817 70.0045 69.1277 71.3588 76.7931C71.6176 78.2577 71.8758 79.7193 72.1488 81.1721C74.649 77.4416 77.2634 73.7629 80.5314 70.6542C79.1516 60.5301 76.3504 49.6598 68.4554 42.5719C64.1085 38.572 56.9397 37.3907 52.1467 41.2869C48.1733 44.0434 47.1358 49.1831 46.9491 53.7012C47.2499 59.784 48.5571 65.8978 51.2337 71.4003C54.9103 80.3683 59.7898 88.7235 64.6707 97.081L64.6708 97.0811L64.6708 97.0812L64.6709 97.0812C67.6405 102.166 70.6107 107.252 73.3107 112.477C76.7654 119.669 80.3861 127.378 79.4109 135.585C78.8922 143.668 73.1551 151.326 65.2082 153.409C58.2988 155.088 50.3208 154.134 44.8327 149.326C38.3797 144.28 35.1325 136.269 34.0951 128.342C32.8812 121.575 34.4997 114.736 36.4397 108.27C36.7613 106.892 37.5705 105.752 38.525 104.736C35.6512 116.218 35.5371 128.798 40.9941 139.565C44.0442 145.026 48.9202 150.072 55.3005 151.264C61.9714 152.963 69.5759 149.948 73.1758 144.052C77.0144 138.176 76.5061 130.549 74.151 124.218C70.5743 114.363 65.3085 105.329 60.043 96.2957C54.755 87.2235 49.4673 78.1518 45.8909 68.2501ZM50.6632 129.959C48.5986 122.912 48.7957 115.244 50.715 108.197C54.1179 113.503 57.3132 118.964 60.187 124.58C61.7224 128.031 63.3304 131.782 62.7495 135.627C62.5005 137.637 60.6642 139.233 58.6204 139.109C54.2527 138.217 52.0948 133.731 50.6632 129.959ZM105.43 31.598C108.418 31.4737 111.406 31.453 114.383 31.598C115.483 46.1677 118.274 60.5508 121.614 74.7577C122.031 76.0937 122.379 77.4645 122.727 78.8375L122.727 78.8376C123.669 82.555 124.616 86.2897 126.957 89.3999C129.819 85.0642 131.016 79.9881 132.196 74.9844L132.196 74.984C132.398 74.1279 132.599 73.2739 132.809 72.4262C136.066 58.9653 138.11 45.2454 139.77 31.5048C142.706 31.4944 145.652 31.5151 148.599 31.6291C146.648 54.3955 144.127 77.4623 135.869 98.9334C135.425 99.8196 135.008 100.742 134.587 101.673L134.586 101.673C132.979 105.225 131.322 108.885 127.984 111.037C124.873 111.528 123.183 108.777 121.724 106.399C121.461 105.971 121.206 105.555 120.95 105.172C115.784 95.607 113.304 84.9026 110.898 74.3847C108.211 60.2606 106.084 45.9811 105.43 31.598ZM107.319 72.4101C107.109 72.7341 106.898 73.0582 106.758 73.2759C106.706 85.687 106.721 98.1 106.736 110.513C106.756 127.959 106.777 145.406 106.613 162.849C110.566 163.067 114.539 163.025 118.492 162.808C118.398 151.171 118.367 139.534 118.461 127.907C119.078 128.652 119.655 129.46 120.236 130.274C121.818 132.492 123.426 134.745 125.961 135.845C129.379 136.263 131.235 133.62 133.048 131.037C133.882 129.848 134.707 128.672 135.672 127.814C135.822 135.162 135.742 142.515 135.662 149.867C135.615 154.198 135.568 158.53 135.568 162.859C138.743 162.961 141.917 162.938 145.092 162.915C145.798 162.91 146.503 162.905 147.208 162.901C147.057 149.442 147.118 135.98 147.179 122.52C147.257 105.472 147.334 88.4261 146.98 71.3899C145.729 72.0188 145.572 73.2817 145.42 74.5118C145.369 74.9236 145.318 75.3317 145.227 75.7111C144.169 83.5866 142.063 91.2962 139.614 98.8401C139.383 99.4116 139.154 99.9878 138.924 100.566C136.999 105.41 135.013 110.404 131.149 114.042C129.613 115.524 127.237 116.726 125.142 115.648C121.456 113.895 119.424 110.141 117.564 106.704L117.537 106.653C112.184 95.6485 109.954 83.514 107.879 71.5454C107.739 71.7629 107.529 72.0865 107.319 72.4101Z" fill="currentColor"/>
</svg>
